<?xml version="1.0" encoding="utf-8"?>
<!-- Generator: Adobe Illustrator 24.0.3, SVG Export Plug-In . SVG Version: 6.00 Build 0)  -->
<!DOCTYPE svg PUBLIC "-//W3C//DTD SVG 1.1//EN" "http://www.w3.org/Graphics/SVG/1.1/DTD/svg11.dtd" [
	<!ENTITY ns_extend "http://ns.adobe.com/Extensibility/1.0/">
	<!ENTITY ns_ai "http://ns.adobe.com/AdobeIllustrator/10.0/">
	<!ENTITY ns_graphs "http://ns.adobe.com/Graphs/1.0/">
	<!ENTITY ns_vars "http://ns.adobe.com/Variables/1.0/">
	<!ENTITY ns_imrep "http://ns.adobe.com/ImageReplacement/1.0/">
	<!ENTITY ns_sfw "http://ns.adobe.com/SaveForWeb/1.0/">
	<!ENTITY ns_custom "http://ns.adobe.com/GenericCustomNamespace/1.0/">
	<!ENTITY ns_adobe_xpath "http://ns.adobe.com/XPath/1.0/">
]>
<svg version="1.1" id="Layer_1" xmlns:x="&ns_extend;" xmlns:i="&ns_ai;" xmlns:graph="&ns_graphs;"
	 xmlns="http://www.w3.org/2000/svg" xmlns:xlink="http://www.w3.org/1999/xlink" x="0px" y="0px" viewBox="0 0 284.9 150"
	 style="enable-background:new 0 0 284.9 150;" xml:space="preserve">
<style type="text/css">
	.st0{fill:#FFFFFF;}
	.st1{fill:#00FFFF;}
	.st2{fill:#AAD4FF;}
	.st3{fill:#13110C;}
	.st4{fill:#7F00FF;}
</style>
<metadata>
	<sfw  xmlns="&ns_sfw;">
		<slices></slices>
		<sliceSourceBounds  bottomLeftOrigin="true" height="150" width="284.9" x="163.4" y="154.6"></sliceSourceBounds>
	</sfw>
</metadata>
<path class="st0" d="M75.4,91.9c-4.4,2.5-8.7,5.1-12.6,8.7c6,1,12.2,4.9,18.3,6.8c5.9,1.8,11.6,1.7,17.4,3.2
	c12.7,3.3,22.6,10.7,34.2,16.3c15.1,7.2,35.1,8.2,50.8,5.2c21.7-4.1,43.9-21.9,65.6-22.6c8.5-0.3,18.9,0.9,26.4,4.8
	c-9-42-62.1-65.2-97.1-67.7c-18.4-1.3-41.5,0.2-58.1,11.6c-9.7,6.6-18,15.7-27.2,23C87.7,85.7,81.5,88.6,75.4,91.9L75.4,91.9z"/>
<path class="st1" d="M106.5,63c4.6-4.2,9.3-8,14.8-10.2c25.2-10.4,50.8-13.2,76.8-4.2c11.1,3.8,22.2,7.6,32.7,14.3
	c15.4,10.1,37.8,19,46.7,36.5c-0.6-14.5-7.7-25.7-15.8-36.4c-15.9-21.1-31.3-33.5-55.6-39.9c-20.9-5.5-43.3-6-63.9-0.3
	C102.4,34,79,74.7,35.4,78.4c9.8,5,24.4,12.2,35.4,10.7C85.3,87.2,95.2,73.4,106.5,63L106.5,63z"/>
<path class="st2" d="M191.6,45.6c-28.5-3.5-84.8-0.8-62.5,48.6c7.2,16.3,23.3,25.5,40.1,27.1c18.4,1.8,36.7-13.6,45.3-30.2
	c4.4-8.4,8.2-20.4,5.3-30C215.8,48.4,202.8,47,191.6,45.6L191.6,45.6z"/>
<g>
	<path class="st3" d="M154.8,73.9c-9.6,30.7,30.8,42.8,41.8,15.2C207.5,62.1,165.2,40.6,154.8,73.9z"/>
	<path class="st3" d="M203.8,44.8c15.9,6.5,33.7,16.7,46.7,28.9c5.2,4.8,10.3,10.9,14.7,16.5c4.6,6,8.7,16.1,14.6,20.6
		c-17.1-13.4-30.4-32.8-49-43.8c-19-11.3-40.3-18.6-62.1-16.4c-17.1,1.7-31.5,2-46.3,12.9c-9.3,6.8-16.9,15-25.1,23.3
		c-7.2,7.3-17.3,12.3-26.8,15.1c-15,4.6-29.9-4.1-41.8-12.8c6.8,6.6,19.6,6.7,28.2,5.7c9.8-1.2,15.9-8.1,23.8-14.6
		c24.5-20.1,46.1-42.1,78.7-43.2C174.9,36.6,189.4,38.7,203.8,44.8z"/>
	<path class="st3" d="M109.6,111c3.5,0.9,7,2.1,10.6,3.4c30,10.5,50.8,25,82.1,12.4c14-5.5,25-14.7,38.2-21.4
		c15.5-7.9,36.5-4.1,44.4,14.6c-18.1-9.3-30-14.9-49.7-6.5c-16.1,6.8-30.1,18.4-46.7,23.8c-13.2,4.3-60.7-5.4-67.4,12.8
		c3.7-10,16.4-15.8,23.8-16.6c-12.6-3.2-26.6,2.7-37.2,11.8c6.8-8.5,15.6-15.3,25.5-16.9c-14.6-1.4-29.3-0.1-42.1,10.6
		c6.7-10.3,19.3-16.3,29.7-16.9c-13.2-3.8-31,3.8-42.5,12.4c5.9-8.7,17.4-13.2,26.3-14.9c-15.2,0.1-27.4,1.8-41.4,10.1
		c9-10,20.4-15,32.4-13.9c-14.6,0.8-27.9-5.7-42.6,0C68.2,103.1,92.6,106.3,109.6,111L109.6,111z"/>
</g>
<path class="st4" d="M206.2,16.9c-20-4.6-51.5-9.5-70.2,3c7.9-1,14.9-3.3,23-2.7c22.6,1.5,44,6.1,64.2,17.6
	c8.6,4.9,17,9.4,24.8,15.6c7.1,5.8,11.5,14.2,19,18.9C258.7,44.2,230,22.5,206.2,16.9L206.2,16.9z"/>
<path class="st3" d="M97.7,75.4C67.5,108.7,17.8,79.5,0,47.8C20.8,75,69.9,88.4,98.6,69.9C71.3,72,31.2,54.4,25.3,20.1
	c22.7,44.1,72.8,34.1,109.3,30.1c-20.5,8.8-62-6.8-58.6-37.6c9.4,32.3,54.8,33.7,78.8,30.4c-20.2-2.5-37.2-18.7-40.2-43
	c15.1,43.2,56.5,23.8,81.1,42.1c-37.3,7.8-78.5,26.6-117.5,47.2L97.7,75.4L97.7,75.4z"/>
</svg>
